PathFileType	4	(X/Y/Z)	C:/Users/opensim2020/Desktop/walking_exp_matlab/subject06_walking21_straight_01.trc																																																																																																																																		
DataRate	CameraRate	NumFrames	NumMarkers	Units	OrigDataRate	OrigDataStartFrame	OrigNumFrames																																																																																																																														
100	100	8	44	mm	100	817	155																																																																																																																														
Frame#	Time	LFHD			RFHD			LBHD			RBHD			C7			T10			CLAV			STRN			RBAK			LSHO			LUPA			LELB			LFRM			LWRA			LWRB			LFIN			RSHO			RUPA			RELB			RFRM			RWRA			RWRB			RFIN			LASI			RASI			LPSI			RPSI			LTHI			LKNE			LTIB			LANK			LHEE			LTOE			RTHI			RKNE			RTIB			RANK			RHEE			RTOE			*39			*40			*41			*42			*43		
		X1	Y1	Z1	X2	Y2	Z2	X3	Y3	Z3	X4	Y4	Z4	X5	Y5	Z5	X6	Y6	Z6	X7	Y7	Z7	X8	Y8	Z8	X9	Y9	Z9	X10	Y10	Z10	X11	Y11	Z11	X12	Y12	Z12	X13	Y13	Z13	X14	Y14	Z14	X15	Y15	Z15	X16	Y16	Z16	X17	Y17	Z17	X18	Y18	Z18	X19	Y19	Z19	X20	Y20	Z20	X21	Y21	Z21	X22	Y22	Z22	X23	Y23	Z23	X24	Y24	Z24	X25	Y25	Z25	X26	Y26	Z26	X27	Y27	Z27	X28	Y28	Z28	X29	Y29	Z29	X30	Y30	Z30	X31	Y31	Z31	X32	Y32	Z32	X33	Y33	Z33	X34	Y34	Z34	X35	Y35	Z35	X36	Y36	Z36	X37	Y37	Z37	X38	Y38	Z38	X39	Y39	Z39	X40	Y40	Z40	X41	Y41	Z41	X42	Y42	Z42	X43	Y43	Z43	X44	Y44	Z44
																																																																																																																																					
59	0.58	-269.36252	1643.36816	-1065.15894	-276.78436	1629.33667	-934.13171	-402.86877	1591.50317	-1074.01526	-408.45383	1582.72192	-945.22839	-408.11703	1429.38342	-1014.21045	-442.77075	1101.45618	-1003.48572	-297.31158	1352.24915	-1014.10229	-256.02115	1179.77222	-1016.51477	-479.74149	1260.92847	-927.90131	-358.5614	1383.25879	-1174.9281	-410.11298	1190.69238	-1245.92383	-448.14145	1084.91052	-1255.62231	-471.17722	938.2431	-1286.48608	-439.33047	807.79779	-1259.94226	-504.84399	823.76917	-1286.60913	-494.93552	732.34644	-1291.52661	-341.99326	1389.51196	-853.32874	-382.65662	1197.97388	-756.93127	-373.85229	1076.47485	-740.62158	-339.75	961.54468	-723.11169	-257.14005	837.44763	-760.79102	-307.51733	827.77429	-717.36353	-255.52811	762.03571	-718.0531	-258.10205	954.51587	-1112.56311	-269.23578	943.46924	-895.36609	-416.35028	971.63019	-1093.47205	-417.42908	965.41962	-926.68225	-251.39479	641.62836	-1176.57532	-196.85847	491.15268	-1142.70215	-199.50462	232.55402	-1134.755	-197.41678	63.38728	-1090.22351	-239.96141	51.47213	-1045.18469	-54.40216	36.73109	-1081.80774	-339.79025	600.28827	-847.57819	-344.26675	473.0351	-862.89075	-550.16571	314.38754	-874.77716	-702.0896	214.04123	-922.06049	-731.30615	240.20392	-969.32959	-689.53314	54.00311	-928.22028	-371.94394	1681.78394	-1010.92322	NaN	NaN	NaN	NaN	NaN	NaN	NaN	NaN	NaN	NaN	NaN	NaN
60	0.59	-255.97769	1646.07532	-1065.6106	-263.21606	1631.98376	-934.78748	-389.15875	1593.61646	-1074.79175	-394.79343	1584.6908	-946.10925	-393.90829	1432.021	-1015.3858	-429.02551	1103.81531	-1004.59357	-283.2467	1354.60693	-1014.98285	-242.17754	1181.86548	-1017.54138	-466.13898	1263.34436	-929.58075	-343.70453	1385.48157	-1176.02185	-393.18024	1192.28638	-1247.55945	-429.51996	1085.92786	-1257.84827	-449.17941	938.61737	-1288.3877	-414.57141	809.03143	-1260.7356	-479.99265	823.3844	-1288.43005	-467.8241	732.24359	-1292.16125	-328.21716	1391.07495	-854.091	-370.0029	1199.32739	-757.92065	-362.77881	1077.61157	-741.54327	-330.82855	961.93317	-724.12689	-250.58682	836.10553	-761.43262	-301.4769	827.72827	-717.88171	-250.81223	760.50385	-718.88641	-245.90378	955.51288	-1113.59521	-255.93985	945.52979	-896.13885	-403.36829	973.63062	-1094.1051	-404.36163	967.24481	-926.96698	-242.44093	641.81354	-1176.67175	-190.36868	490.86038	-1143.20288	-198.39691	232.82553	-1135.06372	-197.49846	63.47663	-1090.06763	-240.10088	51.57251	-1044.87341	-54.34824	36.56989	-1081.62549	-319.44885	601.32471	-848.95184	-319.30298	474.20813	-864.34363	-522.42255	315.26306	-875.21747	-677.11261	218.83328	-921.91064	-706.11444	245.88112	-969.15857	-669.71771	58.59938	-928.50928	-358.77402	1683.98816	-1011.4892	NaN	NaN	NaN	NaN	NaN	NaN	NaN	NaN	NaN	NaN	NaN	NaN
61	0.6	-242.55495	1648.73816	-1066.0271	-249.85272	1634.43213	-935.29303	-375.44705	1595.85852	-1075.53174	-381.22736	1586.58691	-946.73157	-379.73099	1434.74353	-1016.50549	-415.45255	1106.1272	-1005.76428	-269.2952	1356.93945	-1015.7359	-228.59114	1183.95374	-1018.54694	-453.02209	1265.64099	-931.48688	-328.95358	1387.64221	-1177.21741	-375.95517	1193.64209	-1249.27612	-410.92429	1086.73035	-1259.82324	-426.8663	938.82111	-1290.25183	-388.90656	810.35571	-1261.43042	-454.68457	822.87762	-1290.21338	-440.21368	731.97369	-1292.86267	-314.48389	1392.57837	-854.63745	-357.58966	1200.47559	-758.896	-351.46396	1078.54565	-742.42413	-321.96698	962.19952	-725.17358	-244.26334	834.77405	-762.23688	-295.37549	827.32361	-719.25629	-246.27382	759.22192	-719.80884	-233.14772	956.84857	-1114.7843	-243.08496	947.3667	-896.79633	-390.58829	975.72418	-1094.6571	-391.37698	969.04132	-927.40155	-233.65921	642.67041	-1177.0929	-184.71669	490.76431	-1144.15015	-197.67001	233.27121	-1135.27673	-197.6566	63.61953	-1090.08081	-240.28061	51.54365	-1044.81055	-54.41311	36.46214	-1081.82605	-299.04785	602.67468	-850.39832	-294.89307	475.87543	-866.01056	-495.32068	315.44	-875.13361	-652.7276	222.97072	-922.17804	-683.94604	249.08934	-969.09772	-640.35889	63.56424	-927.7724	-345.45444	1686.22925	-1011.96948	NaN	NaN	NaN	NaN	NaN	NaN	NaN	NaN	NaN	NaN	NaN	NaN
62	0.61	-228.84872	1651.40613	-1066.36816	-236.38245	1636.63489	-935.61169	-361.64893	1598.08374	-1076.12915	-367.6196	1588.50623	-947.46649	-365.66739	1437.26099	-1017.50299	-402.14624	1108.44775	-1006.83435	-255.45808	1359.14612	-1016.37933	-215.10661	1186.02222	-1019.42743	-439.42572	1267.89795	-933.5813	-314.39532	1389.70166	-1178.2583	-358.45932	1194.75684	-1250.87732	-391.76758	1087.22485	-1262.01013	-404.13934	938.96649	-1292.07153	-362.98218	811.67383	-1262.30762	-428.90683	822.39886	-1291.64209	-411.88367	731.85992	-1293.68982	-300.8949	1394.14014	-855.14648	-345.40103	1201.77673	-760.02032	-339.87814	1079.6084	-743.52386	-312.96573	962.60132	-726.2934	-238.17775	833.51886	-763.09338	-289.44583	827.18274	-720.23889	-242.04108	758.00348	-720.70795	-220.4812	958.35193	-1115.64258	-229.38647	949.59894	-897.24872	-378.03439	977.94611	-1094.96704	-378.27927	970.91412	-927.85498	-225.37061	644.12091	-1177.66345	-179.68593	490.8215	-1145.43469	-197.17717	233.6474	-1135.59595	-197.92039	63.71305	-1090.13489	-240.47302	51.54201	-1044.82739	-54.57631	36.38852	-1082.12866	-278.45438	604.47186	-851.76965	-270.69299	478.0174	-867.99567	-469.39719	315.96536	-875.409	-627.98303	226.01556	-922.61932	-662.30566	249.59744	-968.49072	-605.12817	67.40245	-927.31671	-331.99057	1688.45471	-1012.32617	NaN	NaN	NaN	NaN	NaN	NaN	NaN	NaN	NaN	NaN	NaN	NaN
63	0.62	-215.19838	1653.67896	-1066.52576	-222.86986	1638.70422	-935.88342	-347.87402	1600.25671	-1076.68225	-354.09985	1590.31287	-948.05621	-351.81461	1439.50232	-1018.46588	-389.05002	1110.55664	-1007.9129	-241.80295	1361.25	-1016.97791	-201.80885	1188.06702	-1020.30688	-426.22586	1270.11182	-935.65417	-299.98499	1391.72644	-1179.18457	-340.63431	1195.81287	-1252.37073	-372.52124	1087.7865	-1263.8656	-380.92398	939.09308	-1293.7041	-336.4198	813.27295	-1263.18665	-402.72345	821.98553	-1293.06348	-382.97485	731.96185	-1294.66565	-287.53067	1395.8219	-855.69	-333.16864	1203.38098	-761.33704	-328.11295	1081.03894	-745.00757	-303.88791	963.34326	-727.58252	-232.30678	832.53851	-763.96478	-283.75531	827.38715	-721.14972	-238.03308	757.11786	-721.57739	-208.12506	960.02222	-1116.2677	-216.38863	951.62244	-897.78601	-365.74548	980.17151	-1095.13416	-365.30621	972.95038	-928.03711	-217.42865	645.80243	-1178.30811	-174.94899	490.91113	-1146.61353	-196.58594	233.84341	-1135.97681	-198.18828	63.781	-1090.25317	-240.79987	51.58897	-1044.74487	-54.79549	36.32483	-1082.47644	-257.83096	606.67511	-853.14923	-246.15527	480.61667	-869.92316	-444.11282	318.51468	-877.05212	-601.12347	226.4017	-922.29639	-638.69836	247.74249	-967.25867	-568.51434	69.90031	-927.24048	-318.47009	1690.51318	-1012.57324	NaN	NaN	NaN	NaN	NaN	NaN	NaN	NaN	NaN	NaN	NaN	NaN
64	0.63	-201.57608	1655.84363	-1066.69019	-209.3618	1640.66882	-936.07434	-334.09787	1602.30908	-1077.13757	-340.53586	1592.16394	-948.52393	-338.25977	1441.62463	-1019.3847	-376.06622	1112.77429	-1009.02454	-228.23462	1363.31091	-1017.46509	-188.7188	1190.00366	-1021.08014	-413.18854	1272.33044	-937.53143	-285.60107	1393.75146	-1180.05237	-322.93103	1196.86646	-1253.78064	-352.90427	1088.30823	-1265.59521	-357.41797	939.38654	-1295.20142	-310.02426	814.84717	-1263.81873	-375.72705	821.45734	-1293.96765	-353.5473	732.45654	-1295.7583	-274.40942	1397.69348	-856.302	-321.04764	1205.07629	-762.80884	-316.28455	1082.70581	-746.76868	-294.80817	964.47711	-729.03442	-226.56038	831.76086	-764.77155	-278.13815	827.96533	-721.8017	-234.14877	756.48468	-722.38391	-195.91751	961.87598	-1116.81323	-203.25612	953.784	-898.5816	-353.61816	982.35724	-1095.22717	-352.71317	975.16742	-928.02917	-209.56001	647.40845	-1178.82886	-169.93872	491.01022	-1147.68481	-195.48094	233.93347	-1136.54053	-198.47655	63.80244	-1090.349	-241.03775	51.583	-1044.88086	-55.0627	36.2667	-1082.79822	-237.24681	609.33063	-854.54413	-222.0856	483.64587	-872.19708	-417.88425	320.76663	-878.72803	-572.9397	223.70528	-921.59656	-613.03754	243.90736	-966.08081	-531.67664	71.06667	-927.34265	-304.90765	1692.45911	-1012.85895	NaN	NaN	NaN	NaN	NaN	NaN	NaN	NaN	NaN	NaN	NaN	NaN
65	0.64	-187.70381	1657.92236	-1066.84326	-195.78452	1642.53296	-936.1731	-320.29568	1604.35291	-1077.53003	-326.98355	1593.99805	-948.92883	-324.81873	1443.59558	-1020.27283	-363.13885	1114.91406	-1010.09406	-214.89809	1365.23145	-1017.97076	-175.8186	1191.81445	-1021.75714	-400.33109	1274.45496	-939.18866	-271.5	1395.74438	-1180.72302	-305.18097	1197.8988	-1254.64514	-333.02505	1088.8623	-1267.10535	-333.52911	939.73254	-1296.39417	-283.42633	816.67212	-1264.42346	-348.99509	821.56885	-1295.27039	-323.53754	733.30896	-1297.00232	-261.60477	1399.67407	-856.92303	-309.16272	1206.90015	-764.4726	-304.71011	1084.53015	-748.6875	-285.7533	965.84644	-730.52283	-221.0285	831.21478	-765.53888	-272.75632	828.75824	-722.60114	-230.49446	756.12183	-723.08026	-184.00499	963.61609	-1117.5022	-190.35757	955.88892	-899.27423	-341.50052	984.48895	-1095.28186	-339.6604	977.2608	-928.19061	-201.55688	648.59204	-1179.27942	-164.9335	490.96329	-1148.38354	-193.7377	233.96979	-1137.19177	-198.85756	63.63095	-1090.30591	-241.17363	51.53648	-1045.19592	-55.31392	36.24805	-1082.99817	-216.86649	612.35779	-855.78271	-198.28143	487.28006	-874.27264	-390.40274	321.02075	-879.63672	-544.32263	219.6371	-921.04456	-586.35345	238.33948	-965.14148	-497.02481	68.88535	-930.27258	-291.16794	1694.4657	-1013.05817	NaN	NaN	NaN	NaN	NaN	NaN	NaN	NaN	NaN	NaN	NaN	NaN
66	0.65	-173.96849	1659.50964	-1066.84412	-182.18729	1644.12378	-936.26215	-306.54886	1606.35278	-1077.88074	-313.33383	1595.85938	-949.3219	-311.38571	1445.56921	-1021.13129	-350.51596	1117.09631	-1011.02936	-201.68315	1367.06836	-1018.51312	-163.05328	1193.505	-1022.3877	-387.19025	1276.64514	-940.47015	-257.48083	1397.72461	-1181.33301	-287.52832	1198.98718	-1255.29175	-312.98352	1089.47241	-1268.44202	-308.94696	940.26672	-1297.36975	-255.92903	818.82593	-1264.52295	-321.40002	821.61584	-1296.13623	-293.11115	734.47894	-1298.15906	-248.81969	1401.63159	-857.60901	-297.33798	1208.76477	-765.90192	-293.39594	1086.35327	-750.64789	-276.83572	967.3559	-732.0816	-215.18159	831.1626	-766.28619	-267.50842	829.74524	-723.6156	-227.01651	755.99542	-723.67242	-172.06377	965.18176	-1118.30225	-177.12782	958.26752	-900.35437	-329.45456	986.513	-1095.42651	-326.99167	979.46063	-928.14398	-194.08875	649.00067	-1179.75977	-159.53517	490.86597	-1149.00269	-191.47003	233.95512	-1138.04749	-198.75716	63.9301	-1090.66675	-241.47125	51.58224	-1045.38672	-55.47604	36.20213	-1083.08508	-196.853	615.49762	-857.13757	-175.04672	490.90353	-876.5874	-362.79907	320.16129	-880.23425	-514.49969	214.28214	-920.79913	-558.66809	231.18292	-964.40448	-459.3548	67.7436	-930.80817	-277.34769	1696.33154	-1013.24701	NaN	NaN	NaN	NaN	NaN	NaN	NaN	NaN	NaN	NaN	NaN	NaN
